<svg width="211" height="50" viewBox="0 0 211 50" fill="none" xmlns="http://www.w3.org/2000/svg">
<circle cx="25" cy="25" r="25" fill="black"/>
<path fill-rule="evenodd" clip-rule="evenodd" d="M23.1382 14C22.4933 14 22.0571 14.5621 22.0571 15.1149V32.8767C22.0571 33.4295 22.4933 34 23.1382 34H26.3815C27.0264 34 27.4625 33.4295 27.4625 32.8767V15.1149C27.4625 14.5621 27.0264 14 26.3815 14H23.1382ZM23.6787 15.6216H25.8409V17.7837H23.6787V15.6216ZM16.0811 16.1621C15.4962 16.1621 15 16.6583 15 17.2432V32.9189C15 33.5038 15.4962 33.9999 16.0811 33.9999H19.3243C19.9092 33.9999 20.4054 33.5038 20.4054 32.9189V17.2432C20.4054 16.6583 19.9092 16.1621 19.3243 16.1621H16.0811ZM16.6216 17.7838H18.7837V19.4054H16.6216V17.7838ZM23.6787 19.4054H25.8409V28.5946H23.6787V19.4054ZM16.6216 21.027H18.7837V29.1351H16.6216V21.027ZM23.6787 30.2162H25.8409V32.3783H23.6787V30.2162ZM16.6216 30.7567H18.7837V32.3783H16.6216V30.7567ZM32.1523 30.698L34.2849 30.3414L34.5523 31.9409L32.4197 32.2974L32.1523 30.698ZM32.9478 22.3444L34.0174 28.742L31.8848 29.0986L30.8152 22.7009L32.9478 22.3444ZM30.2805 19.5021L32.4131 19.1455L32.6805 20.7449L30.5479 21.1015L30.2805 19.5021ZM29.4798 17.9918C28.9325 18.0833 28.4876 18.6129 28.5876 19.2114L30.9122 33.1147C31.0122 33.7132 31.6067 34.0775 32.1539 33.986L35.3528 33.4512C35.9001 33.3597 36.3436 32.8218 36.2436 32.2233L33.919 18.32C33.819 17.7215 33.226 17.3655 32.6787 17.457L29.4798 17.9918Z" fill="white"/>
<path d="M66.044 19.754C66.044 18.686 66.2 17.744 66.512 16.928C66.836 16.112 67.268 15.434 67.808 14.894C68.36 14.342 68.996 13.928 69.716 13.652C70.448 13.376 71.222 13.238 72.038 13.238C72.842 13.238 73.598 13.376 74.306 13.652C75.026 13.928 75.656 14.342 76.196 14.894C76.736 15.434 77.162 16.112 77.474 16.928C77.798 17.744 77.96 18.686 77.96 19.754C77.96 20.69 77.84 21.524 77.6 22.256C77.36 22.988 77.024 23.624 76.592 24.164C76.172 24.692 75.674 25.124 75.098 25.46C74.534 25.784 73.928 26.006 73.28 26.126C73.292 26.402 73.412 26.642 73.64 26.846C73.88 27.062 74.18 27.242 74.54 27.386C74.9 27.53 75.302 27.65 75.746 27.746C76.19 27.842 76.634 27.914 77.078 27.962L76.664 29.33C76.04 29.246 75.44 29.132 74.864 28.988C74.3 28.856 73.784 28.676 73.316 28.448C72.86 28.22 72.476 27.926 72.164 27.566C71.852 27.218 71.642 26.78 71.534 26.252C70.778 26.204 70.064 26.03 69.392 25.73C68.72 25.418 68.138 24.992 67.646 24.452C67.154 23.9 66.764 23.234 66.476 22.454C66.188 21.674 66.044 20.774 66.044 19.754ZM67.88 19.754C67.88 20.51 67.976 21.2 68.168 21.824C68.36 22.436 68.63 22.958 68.978 23.39C69.338 23.822 69.77 24.158 70.274 24.398C70.79 24.626 71.366 24.74 72.002 24.74C72.638 24.74 73.208 24.626 73.712 24.398C74.216 24.158 74.642 23.822 74.99 23.39C75.35 22.958 75.626 22.436 75.818 21.824C76.01 21.2 76.106 20.51 76.106 19.754C76.106 18.998 76.01 18.314 75.818 17.702C75.626 17.078 75.35 16.55 74.99 16.118C74.642 15.686 74.216 15.356 73.712 15.128C73.208 14.888 72.638 14.768 72.002 14.768C71.366 14.768 70.79 14.888 70.274 15.128C69.77 15.356 69.338 15.686 68.978 16.118C68.63 16.55 68.36 17.078 68.168 17.702C67.976 18.314 67.88 18.998 67.88 19.754ZM87.9018 25.73C87.5178 25.826 87.0078 25.928 86.3718 26.036C85.7478 26.144 85.0218 26.198 84.1938 26.198C83.4738 26.198 82.8678 26.096 82.3758 25.892C81.8838 25.676 81.4878 25.376 81.1878 24.992C80.8878 24.608 80.6718 24.158 80.5398 23.642C80.4078 23.114 80.3418 22.532 80.3418 21.896V16.64H82.0158V21.536C82.0158 22.676 82.1958 23.492 82.5558 23.984C82.9158 24.476 83.5218 24.722 84.3738 24.722C84.5538 24.722 84.7398 24.716 84.9318 24.704C85.1238 24.692 85.3038 24.68 85.4718 24.668C85.6398 24.644 85.7898 24.626 85.9218 24.614C86.0658 24.59 86.1678 24.566 86.2278 24.542V16.64H87.9018V25.73ZM92.4597 26H90.7857V16.64H92.4597V26ZM91.6137 14.948C91.3137 14.948 91.0557 14.852 90.8397 14.66C90.6357 14.456 90.5337 14.186 90.5337 13.85C90.5337 13.514 90.6357 13.25 90.8397 13.058C91.0557 12.854 91.3137 12.752 91.6137 12.752C91.9137 12.752 92.1657 12.854 92.3697 13.058C92.5857 13.25 92.6937 13.514 92.6937 13.85C92.6937 14.186 92.5857 14.456 92.3697 14.66C92.1657 14.852 91.9137 14.948 91.6137 14.948ZM101.386 18.62C101.182 18.452 100.888 18.29 100.504 18.134C100.12 17.978 99.7004 17.9 99.2444 17.9C98.7644 17.9 98.3504 17.99 98.0024 18.17C97.6664 18.338 97.3904 18.578 97.1744 18.89C96.9584 19.19 96.8024 19.55 96.7064 19.97C96.6104 20.39 96.5624 20.84 96.5624 21.32C96.5624 22.412 96.8324 23.258 97.3724 23.858C97.9124 24.446 98.6324 24.74 99.5324 24.74C99.9884 24.74 100.366 24.722 100.666 24.686C100.978 24.638 101.218 24.59 101.386 24.542V18.62ZM101.386 12.32L103.06 12.032V25.73C102.676 25.838 102.184 25.946 101.584 26.054C100.984 26.162 100.294 26.216 99.5144 26.216C98.7944 26.216 98.1464 26.102 97.5704 25.874C96.9944 25.646 96.5024 25.322 96.0944 24.902C95.6864 24.482 95.3684 23.972 95.1404 23.372C94.9244 22.76 94.8164 22.076 94.8164 21.32C94.8164 20.6 94.9064 19.94 95.0864 19.34C95.2784 18.74 95.5544 18.224 95.9144 17.792C96.2744 17.36 96.7124 17.024 97.2284 16.784C97.7564 16.544 98.3564 16.424 99.0284 16.424C99.5684 16.424 100.042 16.496 100.45 16.64C100.87 16.784 101.182 16.922 101.386 17.054V12.32ZM109.106 24.794C109.502 24.794 109.85 24.788 110.15 24.776C110.462 24.752 110.72 24.716 110.924 24.668V21.878C110.804 21.818 110.606 21.77 110.33 21.734C110.066 21.686 109.742 21.662 109.358 21.662C109.106 21.662 108.836 21.68 108.548 21.716C108.272 21.752 108.014 21.83 107.774 21.95C107.546 22.058 107.354 22.214 107.198 22.418C107.042 22.61 106.964 22.868 106.964 23.192C106.964 23.792 107.156 24.212 107.54 24.452C107.924 24.68 108.446 24.794 109.106 24.794ZM108.962 16.406C109.634 16.406 110.198 16.496 110.654 16.676C111.122 16.844 111.494 17.09 111.77 17.414C112.058 17.726 112.262 18.104 112.382 18.548C112.502 18.98 112.562 19.46 112.562 19.988V25.838C112.418 25.862 112.214 25.898 111.95 25.946C111.698 25.982 111.41 26.018 111.086 26.054C110.762 26.09 110.408 26.12 110.024 26.144C109.652 26.18 109.28 26.198 108.908 26.198C108.38 26.198 107.894 26.144 107.45 26.036C107.006 25.928 106.622 25.76 106.298 25.532C105.974 25.292 105.722 24.98 105.542 24.596C105.362 24.212 105.272 23.75 105.272 23.21C105.272 22.694 105.374 22.25 105.578 21.878C105.794 21.506 106.082 21.206 106.442 20.978C106.802 20.75 107.222 20.582 107.702 20.474C108.182 20.366 108.686 20.312 109.214 20.312C109.382 20.312 109.556 20.324 109.736 20.348C109.916 20.36 110.084 20.384 110.24 20.42C110.408 20.444 110.552 20.468 110.672 20.492C110.792 20.516 110.876 20.534 110.924 20.546V20.078C110.924 19.802 110.894 19.532 110.834 19.268C110.774 18.992 110.666 18.752 110.51 18.548C110.354 18.332 110.138 18.164 109.862 18.044C109.598 17.912 109.25 17.846 108.818 17.846C108.266 17.846 107.78 17.888 107.36 17.972C106.952 18.044 106.646 18.122 106.442 18.206L106.244 16.82C106.46 16.724 106.82 16.634 107.324 16.55C107.828 16.454 108.374 16.406 108.962 16.406ZM120.94 26C120.808 25.736 120.646 25.442 120.454 25.118C120.262 24.794 120.052 24.464 119.824 24.128C119.596 23.78 119.362 23.438 119.122 23.102C118.882 22.766 118.648 22.448 118.42 22.148C118.192 22.448 117.958 22.772 117.718 23.12C117.478 23.456 117.244 23.798 117.016 24.146C116.8 24.482 116.596 24.812 116.404 25.136C116.212 25.46 116.05 25.748 115.918 26H114.19C114.61 25.184 115.108 24.356 115.684 23.516C116.272 22.664 116.854 21.854 117.43 21.086L114.334 16.64H116.224L118.456 19.916L120.706 16.64H122.488L119.464 20.978C120.04 21.758 120.628 22.586 121.228 23.462C121.84 24.326 122.356 25.172 122.776 26H120.94ZM132.176 26.108C131.924 26.108 131.648 26.102 131.348 26.09C131.06 26.078 130.766 26.06 130.466 26.036C130.178 26.012 129.89 25.982 129.602 25.946C129.314 25.91 129.05 25.862 128.81 25.802V13.706C129.05 13.646 129.314 13.598 129.602 13.562C129.89 13.526 130.178 13.496 130.466 13.472C130.766 13.448 131.06 13.43 131.348 13.418C131.636 13.406 131.906 13.4 132.158 13.4C132.878 13.4 133.55 13.454 134.174 13.562C134.81 13.67 135.356 13.856 135.812 14.12C136.28 14.372 136.646 14.708 136.91 15.128C137.174 15.548 137.306 16.064 137.306 16.676C137.306 17.36 137.144 17.924 136.82 18.368C136.496 18.8 136.064 19.124 135.524 19.34C136.256 19.556 136.838 19.898 137.27 20.366C137.702 20.834 137.918 21.494 137.918 22.346C137.918 23.594 137.456 24.536 136.532 25.172C135.62 25.796 134.168 26.108 132.176 26.108ZM130.538 20.186V24.578C130.67 24.59 130.826 24.602 131.006 24.614C131.162 24.626 131.342 24.638 131.546 24.65C131.762 24.65 132.008 24.65 132.284 24.65C132.8 24.65 133.286 24.62 133.742 24.56C134.21 24.488 134.618 24.368 134.966 24.2C135.314 24.032 135.59 23.798 135.794 23.498C136.01 23.198 136.118 22.82 136.118 22.364C136.118 21.956 136.04 21.614 135.884 21.338C135.728 21.05 135.5 20.822 135.2 20.654C134.912 20.486 134.564 20.366 134.156 20.294C133.748 20.222 133.292 20.186 132.788 20.186H130.538ZM130.538 18.782H132.374C132.806 18.782 133.214 18.752 133.598 18.692C133.982 18.632 134.312 18.524 134.588 18.368C134.876 18.212 135.098 18.008 135.254 17.756C135.422 17.504 135.506 17.186 135.506 16.802C135.506 16.442 135.422 16.142 135.254 15.902C135.086 15.65 134.852 15.452 134.552 15.308C134.264 15.152 133.922 15.038 133.526 14.966C133.13 14.894 132.71 14.858 132.266 14.858C131.822 14.858 131.474 14.864 131.222 14.876C130.97 14.888 130.742 14.906 130.538 14.93V18.782ZM148.53 21.32C148.53 22.064 148.422 22.736 148.206 23.336C147.99 23.936 147.684 24.452 147.288 24.884C146.904 25.316 146.442 25.652 145.902 25.892C145.362 26.12 144.774 26.234 144.138 26.234C143.502 26.234 142.914 26.12 142.374 25.892C141.834 25.652 141.366 25.316 140.97 24.884C140.586 24.452 140.286 23.936 140.07 23.336C139.854 22.736 139.746 22.064 139.746 21.32C139.746 20.588 139.854 19.922 140.07 19.322C140.286 18.71 140.586 18.188 140.97 17.756C141.366 17.324 141.834 16.994 142.374 16.766C142.914 16.526 143.502 16.406 144.138 16.406C144.774 16.406 145.362 16.526 145.902 16.766C146.442 16.994 146.904 17.324 147.288 17.756C147.684 18.188 147.99 18.71 148.206 19.322C148.422 19.922 148.53 20.588 148.53 21.32ZM146.784 21.32C146.784 20.264 146.544 19.43 146.064 18.818C145.596 18.194 144.954 17.882 144.138 17.882C143.322 17.882 142.674 18.194 142.194 18.818C141.726 19.43 141.492 20.264 141.492 21.32C141.492 22.376 141.726 23.216 142.194 23.84C142.674 24.452 143.322 24.758 144.138 24.758C144.954 24.758 145.596 24.452 146.064 23.84C146.544 23.216 146.784 22.376 146.784 21.32ZM159.147 21.32C159.147 22.064 159.039 22.736 158.823 23.336C158.607 23.936 158.301 24.452 157.905 24.884C157.521 25.316 157.059 25.652 156.519 25.892C155.979 26.12 155.391 26.234 154.755 26.234C154.119 26.234 153.531 26.12 152.991 25.892C152.451 25.652 151.983 25.316 151.587 24.884C151.203 24.452 150.903 23.936 150.687 23.336C150.471 22.736 150.363 22.064 150.363 21.32C150.363 20.588 150.471 19.922 150.687 19.322C150.903 18.71 151.203 18.188 151.587 17.756C151.983 17.324 152.451 16.994 152.991 16.766C153.531 16.526 154.119 16.406 154.755 16.406C155.391 16.406 155.979 16.526 156.519 16.766C157.059 16.994 157.521 17.324 157.905 17.756C158.301 18.188 158.607 18.71 158.823 19.322C159.039 19.922 159.147 20.588 159.147 21.32ZM157.401 21.32C157.401 20.264 157.161 19.43 156.681 18.818C156.213 18.194 155.571 17.882 154.755 17.882C153.939 17.882 153.291 18.194 152.811 18.818C152.343 19.43 152.109 20.264 152.109 21.32C152.109 22.376 152.343 23.216 152.811 23.84C153.291 24.452 153.939 24.758 154.755 24.758C155.571 24.758 156.213 24.452 156.681 23.84C157.161 23.216 157.401 22.376 157.401 21.32ZM164.887 20.852C165.247 21.128 165.625 21.47 166.021 21.878C166.429 22.286 166.825 22.73 167.209 23.21C167.605 23.678 167.977 24.158 168.325 24.65C168.673 25.13 168.967 25.58 169.207 26H167.245C166.993 25.58 166.699 25.154 166.363 24.722C166.039 24.278 165.697 23.858 165.337 23.462C164.977 23.054 164.611 22.682 164.239 22.346C163.867 22.01 163.513 21.728 163.177 21.5V26H161.503V12.32L163.177 12.032V20.564C163.465 20.276 163.783 19.958 164.131 19.61C164.479 19.262 164.821 18.908 165.157 18.548C165.493 18.188 165.811 17.846 166.111 17.522C166.411 17.186 166.669 16.892 166.885 16.64H168.847C168.571 16.94 168.271 17.27 167.947 17.63C167.623 17.99 167.287 18.356 166.939 18.728C166.591 19.088 166.237 19.454 165.877 19.826C165.529 20.186 165.199 20.528 164.887 20.852ZM180.545 26.27C179.669 26.27 178.871 26.126 178.151 25.838C177.431 25.55 176.813 25.13 176.297 24.578C175.781 24.026 175.379 23.348 175.091 22.544C174.815 21.728 174.677 20.798 174.677 19.754C174.677 18.71 174.833 17.786 175.145 16.982C175.469 16.166 175.901 15.482 176.441 14.93C176.981 14.378 177.611 13.958 178.331 13.67C179.051 13.382 179.819 13.238 180.635 13.238C181.151 13.238 181.613 13.274 182.021 13.346C182.441 13.418 182.801 13.502 183.101 13.598C183.413 13.694 183.665 13.79 183.857 13.886C184.049 13.982 184.181 14.054 184.253 14.102L183.749 15.542C183.641 15.47 183.485 15.392 183.281 15.308C183.077 15.224 182.843 15.14 182.579 15.056C182.327 14.972 182.045 14.906 181.733 14.858C181.433 14.798 181.127 14.768 180.815 14.768C180.155 14.768 179.561 14.882 179.033 15.11C178.505 15.338 178.055 15.668 177.683 16.1C177.311 16.532 177.023 17.06 176.819 17.684C176.627 18.296 176.531 18.986 176.531 19.754C176.531 20.498 176.615 21.176 176.783 21.788C176.963 22.4 177.227 22.928 177.575 23.372C177.923 23.804 178.355 24.14 178.871 24.38C179.399 24.62 180.011 24.74 180.707 24.74C181.511 24.74 182.177 24.656 182.705 24.488C183.233 24.32 183.629 24.17 183.893 24.038L184.343 25.478C184.259 25.538 184.109 25.616 183.893 25.712C183.677 25.796 183.407 25.88 183.083 25.964C182.759 26.048 182.381 26.12 181.949 26.18C181.517 26.24 181.049 26.27 180.545 26.27ZM189.043 26.18C188.011 26.156 187.279 25.934 186.847 25.514C186.415 25.094 186.199 24.44 186.199 23.552V12.32L187.873 12.032V23.282C187.873 23.558 187.897 23.786 187.945 23.966C187.993 24.146 188.071 24.29 188.179 24.398C188.287 24.506 188.431 24.59 188.611 24.65C188.791 24.698 189.013 24.74 189.277 24.776L189.043 26.18ZM198.609 25.73C198.225 25.826 197.715 25.928 197.079 26.036C196.455 26.144 195.729 26.198 194.901 26.198C194.181 26.198 193.575 26.096 193.083 25.892C192.591 25.676 192.195 25.376 191.895 24.992C191.595 24.608 191.379 24.158 191.247 23.642C191.115 23.114 191.049 22.532 191.049 21.896V16.64H192.723V21.536C192.723 22.676 192.903 23.492 193.263 23.984C193.623 24.476 194.229 24.722 195.081 24.722C195.261 24.722 195.447 24.716 195.639 24.704C195.831 24.692 196.011 24.68 196.179 24.668C196.347 24.644 196.497 24.626 196.629 24.614C196.773 24.59 196.875 24.566 196.935 24.542V16.64H198.609V25.73ZM203.167 17.054C203.371 16.922 203.677 16.784 204.085 16.64C204.505 16.496 204.985 16.424 205.525 16.424C206.197 16.424 206.791 16.544 207.307 16.784C207.835 17.024 208.279 17.36 208.639 17.792C208.999 18.224 209.269 18.74 209.449 19.34C209.641 19.94 209.737 20.6 209.737 21.32C209.737 22.076 209.623 22.76 209.395 23.372C209.179 23.972 208.867 24.482 208.459 24.902C208.051 25.322 207.559 25.646 206.983 25.874C206.407 26.102 205.759 26.216 205.039 26.216C204.259 26.216 203.569 26.162 202.969 26.054C202.369 25.946 201.877 25.838 201.493 25.73V12.32L203.167 12.032V17.054ZM203.167 24.542C203.335 24.59 203.569 24.638 203.869 24.686C204.181 24.722 204.565 24.74 205.021 24.74C205.921 24.74 206.641 24.446 207.181 23.858C207.721 23.258 207.991 22.412 207.991 21.32C207.991 20.84 207.943 20.39 207.847 19.97C207.751 19.55 207.595 19.19 207.379 18.89C207.163 18.578 206.881 18.338 206.533 18.17C206.197 17.99 205.789 17.9 205.309 17.9C204.853 17.9 204.433 17.978 204.049 18.134C203.665 18.29 203.371 18.452 203.167 18.62V24.542Z" fill="black"/>
<path d="M72.588 44C72.452 43.64 72.324 43.288 72.204 42.944C72.084 42.592 71.96 42.236 71.832 41.876H68.064L67.308 44H66.096C66.416 43.12 66.716 42.308 66.996 41.564C67.276 40.812 67.548 40.1 67.812 39.428C68.084 38.756 68.352 38.116 68.616 37.508C68.88 36.892 69.156 36.284 69.444 35.684H70.512C70.8 36.284 71.076 36.892 71.34 37.508C71.604 38.116 71.868 38.756 72.132 39.428C72.404 40.1 72.68 40.812 72.96 41.564C73.24 42.308 73.54 43.12 73.86 44H72.588ZM71.496 40.916C71.24 40.22 70.984 39.548 70.728 38.9C70.48 38.244 70.22 37.616 69.948 37.016C69.668 37.616 69.4 38.244 69.144 38.9C68.896 39.548 68.648 40.22 68.4 40.916H71.496ZM78.7967 39.08C78.6607 38.968 78.4647 38.86 78.2087 38.756C77.9527 38.652 77.6727 38.6 77.3687 38.6C77.0487 38.6 76.7727 38.66 76.5407 38.78C76.3167 38.892 76.1327 39.052 75.9887 39.26C75.8447 39.46 75.7407 39.7 75.6767 39.98C75.6127 40.26 75.5807 40.56 75.5807 40.88C75.5807 41.608 75.7607 42.172 76.1207 42.572C76.4807 42.964 76.9607 43.16 77.5607 43.16C77.8647 43.16 78.1167 43.148 78.3167 43.124C78.5247 43.092 78.6847 43.06 78.7967 43.028V39.08ZM78.7967 34.88L79.9127 34.688V43.82C79.6567 43.892 79.3287 43.964 78.9287 44.036C78.5287 44.108 78.0687 44.144 77.5487 44.144C77.0687 44.144 76.6367 44.068 76.2527 43.916C75.8687 43.764 75.5407 43.548 75.2687 43.268C74.9967 42.988 74.7847 42.648 74.6327 42.248C74.4887 41.84 74.4167 41.384 74.4167 40.88C74.4167 40.4 74.4767 39.96 74.5967 39.56C74.7247 39.16 74.9087 38.816 75.1487 38.528C75.3887 38.24 75.6807 38.016 76.0247 37.856C76.3767 37.696 76.7767 37.616 77.2247 37.616C77.5847 37.616 77.9007 37.664 78.1727 37.76C78.4527 37.856 78.6607 37.948 78.7967 38.036V34.88ZM81.8311 37.94C82.0871 37.876 82.4231 37.808 82.8391 37.736C83.2631 37.664 83.7511 37.628 84.3031 37.628C84.7031 37.628 85.0391 37.684 85.3111 37.796C85.5831 37.9 85.8111 38.056 85.9951 38.264C86.0511 38.224 86.1391 38.168 86.2591 38.096C86.3791 38.024 86.5271 37.956 86.7031 37.892C86.8791 37.82 87.0751 37.76 87.2911 37.712C87.5071 37.656 87.7391 37.628 87.9871 37.628C88.4671 37.628 88.8591 37.7 89.1631 37.844C89.4671 37.98 89.7031 38.176 89.8711 38.432C90.0471 38.688 90.1631 38.992 90.2191 39.344C90.2831 39.696 90.3151 40.08 90.3151 40.496V44H89.1991V40.736C89.1991 40.368 89.1791 40.052 89.1391 39.788C89.1071 39.524 89.0391 39.304 88.9351 39.128C88.8391 38.952 88.7031 38.824 88.5271 38.744C88.3591 38.656 88.1391 38.612 87.8671 38.612C87.4911 38.612 87.1791 38.664 86.9311 38.768C86.6911 38.864 86.5271 38.952 86.4391 39.032C86.5031 39.24 86.5511 39.468 86.5831 39.716C86.6151 39.964 86.6311 40.224 86.6311 40.496V44H85.5151V40.736C85.5151 40.368 85.4951 40.052 85.4551 39.788C85.4151 39.524 85.3431 39.304 85.2391 39.128C85.1431 38.952 85.0071 38.824 84.8311 38.744C84.6631 38.656 84.4471 38.612 84.1831 38.612C84.0711 38.612 83.9511 38.616 83.8231 38.624C83.6951 38.632 83.5711 38.644 83.4511 38.66C83.3391 38.668 83.2351 38.68 83.1391 38.696C83.0431 38.712 82.9791 38.724 82.9471 38.732V44H81.8311V37.94ZM93.283 44H92.167V37.76H93.283V44ZM92.719 36.632C92.519 36.632 92.347 36.568 92.203 36.44C92.067 36.304 91.999 36.124 91.999 35.9C91.999 35.676 92.067 35.5 92.203 35.372C92.347 35.236 92.519 35.168 92.719 35.168C92.919 35.168 93.087 35.236 93.223 35.372C93.367 35.5 93.439 35.676 93.439 35.9C93.439 36.124 93.367 36.304 93.223 36.44C93.087 36.568 92.919 36.632 92.719 36.632ZM95.2022 37.94C95.4582 37.876 95.7982 37.808 96.2222 37.736C96.6462 37.664 97.1342 37.628 97.6862 37.628C98.1822 37.628 98.5942 37.7 98.9222 37.844C99.2502 37.98 99.5102 38.176 99.7022 38.432C99.9022 38.68 100.042 38.98 100.122 39.332C100.202 39.684 100.242 40.072 100.242 40.496V44H99.1262V40.736C99.1262 40.352 99.0982 40.024 99.0422 39.752C98.9942 39.48 98.9102 39.26 98.7902 39.092C98.6702 38.924 98.5102 38.804 98.3102 38.732C98.1102 38.652 97.8622 38.612 97.5662 38.612C97.4462 38.612 97.3222 38.616 97.1942 38.624C97.0662 38.632 96.9422 38.644 96.8222 38.66C96.7102 38.668 96.6062 38.68 96.5102 38.696C96.4222 38.712 96.3582 38.724 96.3182 38.732V44H95.2022V37.94Z" fill="#AAAAAA"/>
</svg>
